<svg xmlns="http://www.w3.org/2000/svg" width="119" height="100" viewBox="0 0 119 100" fill="none">
  <path opacity="0.1" d="M105.69 14.7155V73.6447C105.69 75.5638 104.133 77.1214 102.213 77.1214H16.4562C14.5371 77.1214 12.9795 75.5638 12.9795 73.6447V14.7155C12.9795 12.7964 14.5371 11.2389 16.4562 11.2389H102.213C104.133 11.2389 105.69 12.7964 105.69 14.7155Z" fill="url(#paint0_linear_1_405)"/>
  <path d="M72.4789 98.8411H46.1908L51.4475 78.0044H67.2222L72.4789 98.8411Z" fill="white"/>
  <path d="M105.69 19.585V78.5142C105.69 80.4334 104.133 81.9909 102.213 81.9909H16.4562C14.5371 81.9909 12.9795 80.4334 12.9795 78.5142V19.585C12.9795 17.6659 14.5371 16.1084 16.4562 16.1084H102.213C104.133 16.1084 105.69 17.6659 105.69 19.585Z" fill="white"/>
  <path d="M99.2004 70.3094H49.6002V34.632C49.6002 34.2472 49.9108 33.9366 50.2955 33.9366H98.5051C98.8898 33.9366 99.2004 34.2472 99.2004 34.632V70.3094Z" fill="white"/>
  <path d="M99.2004 38.8295H49.6002V34.632C49.6002 34.2472 49.9108 33.9366 50.2955 33.9366H98.5051C98.8898 33.9366 99.2004 34.2472 99.2004 34.632V38.8295Z" fill="#6583FE" fill-opacity="0.3"/>
  <path fill-rule="evenodd" clip-rule="evenodd" d="M50.7591 35.0956V69.1505H98.0415V35.0956H50.7591ZM48.4413 34.632C48.4413 33.6073 49.2708 32.7778 50.2955 32.7778H98.5051C99.5298 32.7778 100.359 33.6073 100.359 34.632V71.4683H48.4413V34.632Z" fill="url(#paint1_linear_1_405)"/>
  <path d="M105.69 27.2731V19.585C105.69 17.6659 104.133 16.1084 102.213 16.1084H16.4562C14.5371 16.1084 12.9795 17.6659 12.9795 19.585V27.2731H105.69Z" fill="white"/>
  <path d="M12.9795 70.3093V78.5119C12.9795 80.431 14.5371 81.9885 16.4562 81.9885H102.213C104.133 81.9885 105.69 80.431 105.69 78.5119V70.3093H12.9795Z" fill="white"/>
  <path d="M21.8056 20.5145C21.1659 20.5145 20.6467 21.0337 20.6467 21.6734V21.7082C20.6467 22.3479 21.1659 22.8671 21.8056 22.8671C22.4453 22.8671 22.9644 22.3479 22.9644 21.7082V21.6734C22.9644 21.0337 22.4453 20.5145 21.8056 20.5145Z" fill="url(#paint2_linear_1_405)"/>
  <path d="M26.2858 20.5145C25.6461 20.5145 25.1269 21.0337 25.1269 21.6734V21.7082C25.1269 22.3479 25.6461 22.8671 26.2858 22.8671C26.9255 22.8671 27.4447 22.3479 27.4447 21.7082V21.6734C27.4447 21.0337 26.9255 20.5145 26.2858 20.5145Z" fill="url(#paint3_linear_1_405)"/>
  <path d="M30.7638 20.5145C30.1241 20.5145 29.6049 21.0337 29.6049 21.6734V21.7082C29.6049 22.3479 30.1241 22.8671 30.7638 22.8671C31.4035 22.8671 31.9226 22.3479 31.9226 21.7082V21.6734C31.9226 21.0337 31.4035 20.5145 30.7638 20.5145Z" fill="url(#paint4_linear_1_405)"/>
  <path d="M102.213 14.9496H16.4562C13.8997 14.9496 11.8206 17.0286 11.8206 19.5851V27.2731C11.8206 27.9128 12.3398 28.432 12.9795 28.432H104.531V69.1528H14.1384V33.6563C14.1384 33.0166 13.6192 32.4974 12.9795 32.4974C12.3398 32.4974 11.8206 33.0166 11.8206 33.6563V78.512C11.8206 81.0685 13.8997 83.1475 16.4562 83.1475H48.9536L45.2869 97.6799H41.7337C41.094 97.6799 40.5748 98.1991 40.5748 98.8388C40.5748 99.4785 41.094 99.9977 41.7337 99.9977H46.1885C46.7192 99.9977 47.1828 99.6361 47.3126 99.1216L51.3432 83.1452H67.3218L70.9886 97.6776L52.5716 97.6799C51.9319 97.6799 51.4127 98.1991 51.4127 98.8388C51.4127 99.4785 51.9319 99.9977 52.5716 99.9977L76.9313 99.9954C77.571 99.9954 78.0902 99.4762 78.0902 98.8365C78.0902 98.1968 77.571 97.6776 76.9313 97.6776H73.3805L69.7138 83.1452H102.213C104.77 83.1452 106.849 81.0662 106.849 78.5097V19.5851C106.849 17.0286 104.77 14.9496 102.213 14.9496ZM14.1384 26.1143V19.5851C14.1384 18.308 15.1791 17.2674 16.4562 17.2674H102.213C103.491 17.2674 104.531 18.308 104.531 19.5851V26.1143H14.1384ZM102.213 80.8298H16.4562C15.1791 80.8298 14.1384 79.7891 14.1384 78.512V71.4683H104.531V78.512C104.531 79.7914 103.493 80.8298 102.213 80.8298Z" fill="url(#paint5_linear_1_405)"/>
  <path d="M33.1487 52.4209C38.2869 52.4209 42.4522 48.2555 42.4522 43.1174C42.4522 37.9792 38.2869 33.8138 33.1487 33.8138C28.0105 33.8138 23.8452 37.9792 23.8452 43.1174C23.8452 48.2555 28.0105 52.4209 33.1487 52.4209Z" fill="#6583FE" fill-opacity="0.3"/>
  <path d="M37.0101 41.7777C37.0101 39.6546 35.2834 37.9279 33.1603 37.9279C31.0372 37.9279 29.3105 39.6546 29.3105 41.7777C29.3105 42.8253 29.7323 43.7756 30.4114 44.4686C29.73 45.1639 29.3105 46.1142 29.3105 47.1595C29.3105 47.7992 29.8297 48.3184 30.4694 48.3184C31.1091 48.3184 31.6283 47.7992 31.6283 47.1595C31.6283 46.3135 32.3166 45.6275 33.1603 45.6275C34.004 45.6275 34.6923 46.3158 34.6923 47.1595C34.6923 47.7992 35.2115 48.3184 35.8512 48.3184C36.4909 48.3184 37.0101 47.7992 37.0101 47.1595C37.0101 46.1119 36.5883 45.1616 35.9069 44.4686C36.5883 43.7756 37.0101 42.8253 37.0101 41.7777ZM33.1603 40.2456C34.0063 40.2456 34.6923 40.934 34.6923 41.7777C34.6923 42.6213 34.004 43.3097 33.1603 43.3097C32.3166 43.3097 31.6283 42.6213 31.6283 41.7777C31.6283 40.934 32.3143 40.2456 33.1603 40.2456Z" fill="url(#paint6_linear_1_405)"/>
  <path d="M89.3105 50.0706H59.4901C57.6753 50.0706 56.2058 48.5988 56.2058 46.7863C56.2058 44.9715 57.6776 43.5021 59.4901 43.5021H89.3082C91.123 43.5021 92.5925 44.9739 92.5925 46.7863C92.5925 48.5988 91.1253 50.0706 89.3105 50.0706Z" fill="#6583FE" fill-opacity="0.3"/>
  <path d="M70.481 48.133C71.1965 48.133 71.7766 47.5529 71.7766 46.8374C71.7766 46.1218 71.1965 45.5417 70.481 45.5417C69.7654 45.5417 69.1854 46.1218 69.1854 46.8374C69.1854 47.5529 69.7654 48.133 70.481 48.133Z" fill="url(#paint7_linear_1_405)"/>
  <path d="M74.4003 48.133C75.1158 48.133 75.6959 47.5529 75.6959 46.8374C75.6959 46.1218 75.1158 45.5417 74.4003 45.5417C73.6847 45.5417 73.1046 46.1218 73.1046 46.8374C73.1046 47.5529 73.6847 48.133 74.4003 48.133Z" fill="url(#paint8_linear_1_405)"/>
  <path d="M78.3196 45.5417C79.0358 45.5417 79.6153 46.1212 79.6153 46.8374C79.6153 47.5536 79.0358 48.133 78.3196 48.133C77.6034 48.133 77.024 47.5536 77.024 46.8374C77.024 46.1212 77.6034 45.5417 78.3196 45.5417Z" fill="url(#paint9_linear_1_405)"/>
  <path d="M89.3105 59.2258H59.4901C57.6753 59.2258 56.2058 57.754 56.2058 55.9415C56.2058 54.1267 57.6776 52.6572 59.4901 52.6572H89.3082C91.123 52.6572 92.5925 54.129 92.5925 55.9415C92.5925 57.754 91.1253 59.2258 89.3105 59.2258Z" fill="#6583FE" fill-opacity="0.3"/>
  <path d="M70.481 57.2882C71.1965 57.2882 71.7766 56.7081 71.7766 55.9925C71.7766 55.277 71.1965 54.6969 70.481 54.6969C69.7654 54.6969 69.1854 55.277 69.1854 55.9925C69.1854 56.7081 69.7654 57.2882 70.481 57.2882Z" fill="url(#paint10_linear_1_405)"/>
  <path d="M74.4003 57.2882C75.1158 57.2882 75.6959 56.7081 75.6959 55.9925C75.6959 55.277 75.1158 54.6969 74.4003 54.6969C73.6847 54.6969 73.1046 55.277 73.1046 55.9925C73.1046 56.7081 73.6847 57.2882 74.4003 57.2882Z" fill="url(#paint11_linear_1_405)"/>
  <path d="M78.3196 54.6969C79.0358 54.6969 79.6153 55.2763 79.6153 55.9925C79.6153 56.7087 79.0358 57.2882 78.3196 57.2882C77.6034 57.2882 77.024 56.7087 77.024 55.9925C77.024 55.2763 77.6034 54.6969 78.3196 54.6969Z" fill="url(#paint12_linear_1_405)"/>
  <path d="M79.0126 66.1397H69.8412C69.4565 66.1397 69.1459 65.8291 69.1459 65.4444V62.7789C69.1459 62.3942 69.4565 62.0836 69.8412 62.0836H79.0126C79.3974 62.0836 79.708 62.3942 79.708 62.7789V65.4444C79.708 65.8291 79.3951 66.1397 79.0126 66.1397Z" fill="#6583FE"/>
  <path d="M40.8761 58.3659H25.4421C24.7862 58.3659 24.2554 57.8352 24.2554 57.1792C24.2554 56.5233 24.7862 55.9926 25.4421 55.9926H40.8761C41.5321 55.9926 42.0628 56.5233 42.0628 57.1792C42.0628 57.8352 41.5321 58.3659 40.8761 58.3659Z" fill="url(#paint13_linear_1_405)"/>
  <path d="M36.7042 62.7696H29.6141C28.9582 62.7696 28.4274 62.2389 28.4274 61.5829C28.4274 60.927 28.9582 60.3962 29.6141 60.3962H36.7042C37.3601 60.3962 37.8909 60.927 37.8909 61.5829C37.8909 62.2389 37.3601 62.7696 36.7042 62.7696Z" fill="url(#paint14_linear_1_405)"/>
  <path d="M86.7331 95.7469C86.4364 95.7469 86.1398 95.6333 85.9126 95.4085L83.3654 92.8613C82.9134 92.4093 82.9134 91.6746 83.3654 91.2226L85.9126 88.6754C86.3646 88.2234 87.0993 88.2234 87.5513 88.6754L90.0985 91.2226C90.5505 91.6746 90.5505 92.4093 90.0985 92.8613L87.5513 95.4085C87.3264 95.6333 87.0298 95.7469 86.7331 95.7469ZM85.8245 92.0408L86.7331 92.9493L87.6417 92.0408L86.7331 91.1322L85.8245 92.0408Z" fill="#6583FE"/>
  <path d="M30.467 12.7847C30.1704 12.7847 29.8737 12.6712 29.6466 12.4463L27.0993 9.89681C26.6474 9.44484 26.6474 8.71011 27.0993 8.25815L29.6466 5.71092C30.0985 5.25896 30.8333 5.25896 31.2852 5.71092L33.8324 8.25815C34.2844 8.71011 34.2844 9.44484 33.8324 9.89681L31.2875 12.4463C31.0604 12.6735 30.7637 12.7847 30.467 12.7847ZM29.5585 9.07864L30.467 9.9872L31.3756 9.07864L30.467 8.17007L29.5585 9.07864Z" fill="#6583FE"/>
  <path d="M42.0628 7.4145C41.7661 7.4145 41.4695 7.30093 41.2423 7.07611L38.6951 4.52889C38.2431 4.07692 38.2431 3.34219 38.6951 2.89023L41.2423 0.343002C41.6943 -0.108963 42.429 -0.108963 42.881 0.343002L45.4282 2.89023C45.8802 3.34219 45.8802 4.07692 45.4282 4.52889L42.881 7.07611C42.6562 7.30093 42.3595 7.4145 42.0628 7.4145ZM41.1543 3.70608L42.0628 4.61464L42.9714 3.70608L42.0628 2.79752L41.1543 3.70608Z" fill="#6583FE"/>
  <path d="M95.1489 8.68931C94.5092 8.68931 93.99 8.17013 93.99 7.53042C93.99 6.76092 93.3642 6.13513 92.5947 6.13513C91.955 6.13513 91.4358 5.61595 91.4358 4.97624C91.4358 4.33654 91.955 3.81736 92.5947 3.81736C93.3642 3.81736 93.99 3.19156 93.99 2.42207C93.99 1.78236 94.5092 1.26318 95.1489 1.26318C95.7886 1.26318 96.3078 1.78236 96.3078 2.42207C96.3078 3.19156 96.9336 3.81736 97.7031 3.81736C98.3428 3.81736 98.862 4.33654 98.862 4.97624C98.862 5.61595 98.3428 6.13513 97.7031 6.13513C96.9336 6.13513 96.3078 6.76092 96.3078 7.53042C96.3078 8.17013 95.7886 8.68931 95.1489 8.68931Z" fill="#6583FE"/>
  <defs>
    <linearGradient id="paint0_linear_1_405" x1="101.816" y1="11.2389" x2="96.6418" y2="83.1414" gradientUnits="userSpaceOnUse">
      <stop stop-color="#61DCDF"/>
      <stop offset="1" stop-color="#886CFF"/>
    </linearGradient>
    <linearGradient id="paint1_linear_1_405" x1="98.1896" y1="32.7778" x2="95.0049" y2="74.982" gradientUnits="userSpaceOnUse">
      <stop stop-color="#61DCDF"/>
      <stop offset="1" stop-color="#886CFF"/>
    </linearGradient>
    <linearGradient id="paint2_linear_1_405" x1="22.8676" y1="20.5145" x2="22.6051" y2="23.0683" gradientUnits="userSpaceOnUse">
      <stop stop-color="#61DCDF"/>
      <stop offset="1" stop-color="#886CFF"/>
    </linearGradient>
    <linearGradient id="paint3_linear_1_405" x1="27.3478" y1="20.5145" x2="27.0853" y2="23.0683" gradientUnits="userSpaceOnUse">
      <stop stop-color="#61DCDF"/>
      <stop offset="1" stop-color="#886CFF"/>
    </linearGradient>
    <linearGradient id="paint4_linear_1_405" x1="31.8258" y1="20.5145" x2="31.5633" y2="23.0683" gradientUnits="userSpaceOnUse">
      <stop stop-color="#61DCDF"/>
      <stop offset="1" stop-color="#886CFF"/>
    </linearGradient>
    <linearGradient id="paint5_linear_1_405" x1="102.878" y1="14.9496" x2="94.4914" y2="107.49" gradientUnits="userSpaceOnUse">
      <stop stop-color="#61DCDF"/>
      <stop offset="1" stop-color="#886CFF"/>
    </linearGradient>
    <linearGradient id="paint6_linear_1_405" x1="36.6883" y1="37.9279" x2="35.1593" y2="49.1176" gradientUnits="userSpaceOnUse">
      <stop stop-color="#61DCDF"/>
      <stop offset="1" stop-color="#886CFF"/>
    </linearGradient>
    <linearGradient id="paint7_linear_1_405" x1="71.6683" y1="45.5417" x2="71.3834" y2="48.3556" gradientUnits="userSpaceOnUse">
      <stop stop-color="#61DCDF"/>
      <stop offset="1" stop-color="#886CFF"/>
    </linearGradient>
    <linearGradient id="paint8_linear_1_405" x1="75.5876" y1="45.5417" x2="75.3027" y2="48.3556" gradientUnits="userSpaceOnUse">
      <stop stop-color="#61DCDF"/>
      <stop offset="1" stop-color="#886CFF"/>
    </linearGradient>
    <linearGradient id="paint9_linear_1_405" x1="79.507" y1="45.5417" x2="79.2221" y2="48.3556" gradientUnits="userSpaceOnUse">
      <stop stop-color="#61DCDF"/>
      <stop offset="1" stop-color="#886CFF"/>
    </linearGradient>
    <linearGradient id="paint10_linear_1_405" x1="71.6683" y1="54.6969" x2="71.3834" y2="57.5107" gradientUnits="userSpaceOnUse">
      <stop stop-color="#61DCDF"/>
      <stop offset="1" stop-color="#886CFF"/>
    </linearGradient>
    <linearGradient id="paint11_linear_1_405" x1="75.5876" y1="54.6969" x2="75.3027" y2="57.5107" gradientUnits="userSpaceOnUse">
      <stop stop-color="#61DCDF"/>
      <stop offset="1" stop-color="#886CFF"/>
    </linearGradient>
    <linearGradient id="paint12_linear_1_405" x1="79.507" y1="54.6969" x2="79.222" y2="57.5107" gradientUnits="userSpaceOnUse">
      <stop stop-color="#61DCDF"/>
      <stop offset="1" stop-color="#886CFF"/>
    </linearGradient>
    <linearGradient id="paint13_linear_1_405" x1="41.3186" y1="55.9926" x2="41.2835" y2="58.5957" gradientUnits="userSpaceOnUse">
      <stop stop-color="#61DCDF"/>
      <stop offset="1" stop-color="#886CFF"/>
    </linearGradient>
    <linearGradient id="paint14_linear_1_405" x1="37.4954" y1="60.3962" x2="37.4293" y2="62.9982" gradientUnits="userSpaceOnUse">
      <stop stop-color="#61DCDF"/>
      <stop offset="1" stop-color="#886CFF"/>
    </linearGradient>
  </defs>
</svg>