<svg xmlns="http://www.w3.org/2000/svg" width="240" height="240" viewBox="0 0 240 240" fill="none">
  <path fill-rule="evenodd" clip-rule="evenodd" d="M117.374 0C115.503 0.0398331 113.633 0.126454 111.764 0.255438L0.254173 111.765C0.126454 113.632 0.0398331 115.503 0 117.375L117.374 0ZM137.074 1.183C135.484 0.957278 133.893 0.766332 132.301 0.605103L0.60376 132.3C0.766253 133.893 0.957199 135.488 1.18418 137.074L137.074 1.183ZM150.015 3.77277C151.421 4.13316 152.822 4.51252 154.218 4.92666L4.92538 154.218C4.51187 152.822 4.13314 151.422 3.77148 150.015L150.015 3.77277ZM192.276 24.1628C193.288 24.9266 194.293 25.7087 195.286 26.5105L26.5092 195.286C25.7081 194.294 24.9266 193.29 24.1628 192.276L192.276 24.1628ZM183.063 17.8459C181.955 17.1605 180.834 16.496 179.707 15.8479L15.8473 179.707C16.4941 180.833 17.1586 181.955 17.8453 183.067L183.063 17.8459ZM165.694 8.97949C166.946 9.4929 168.192 10.0335 169.434 10.5956L10.5944 169.434C10.0335 168.192 9.49294 166.946 8.97827 165.694L165.694 8.97949ZM203.578 33.8601C204.013 34.2799 204.446 34.6974 204.875 35.1271C205.324 35.5734 205.761 36.0274 206.196 36.482L36.4807 206.199L36.2145 205.941L36.212 205.939C35.8481 205.588 35.4844 205.236 35.1252 204.876C34.7295 204.481 34.3433 204.08 33.9564 203.678L33.8037 203.52L203.52 33.8037L203.578 33.8601ZM93.5888 2.90149L2.90149 93.5888C3.44461 91.171 4.06234 88.7671 4.75594 86.379L86.379 4.75721C88.7658 4.0636 91.1697 3.44461 93.5888 2.90149ZM239.748 128.237C239.876 126.368 239.96 124.499 240 122.627L122.627 240C124.496 239.96 126.368 239.877 128.234 239.747L239.748 128.237ZM238.816 102.928C239.042 104.515 239.234 106.107 239.397 107.702L107.702 239.397C106.107 239.233 104.515 239.045 102.927 238.817L238.816 102.928ZM59.0345 16.5712C50.5001 21.611 42.4563 27.7933 35.1258 35.1271C27.7933 42.4576 21.6097 50.5014 16.5712 59.0345L59.0345 16.5712ZM237.101 146.414C236.557 148.832 235.939 151.236 235.245 153.624L153.62 235.246C151.235 235.94 148.828 236.559 146.414 237.101L237.101 146.414ZM180.965 223.431C189.501 218.391 197.542 212.206 204.875 204.875C212.207 197.544 218.391 189.501 223.429 180.965L180.965 223.431ZM222.154 56.9366C222.843 58.0469 223.505 59.166 224.152 60.2927L60.2928 224.152C59.1661 223.507 58.0457 222.842 56.9354 222.157L222.154 56.9366ZM215.84 47.7232C215.073 46.7115 214.294 45.7088 213.492 44.7167L44.7155 213.491C45.7081 214.293 46.7122 215.073 47.7232 215.84L215.84 47.7232ZM235.076 85.784C235.487 87.1775 235.869 88.5812 236.229 89.9848L89.9855 236.23C88.5799 235.869 87.1776 235.487 85.7847 235.076L235.076 85.784Z" fill="url(#paint0_linear_18_4438)"/>
  <defs>
    <linearGradient id="paint0_linear_18_4438" x1="3.55555" y1="2.4" x2="248.313" y2="13.3858" gradientUnits="userSpaceOnUse">
      <stop stop-color="#FFB95B"/>
      <stop offset="1" stop-color="#DA8412"/>
    </linearGradient>
  </defs>
</svg>