<svg xmlns="http://www.w3.org/2000/svg" width="198" height="52" viewBox="0 0 198 52" fill="none">
  <ellipse cx="26.8647" cy="26" rx="26.0542" ry="26" fill="#4F77FF"/>
  <path d="M28.5178 35.893V26.0503H31.4821L31.8751 22.5862H28.5178L28.5228 20.8522C28.5228 19.9487 28.6145 19.4648 30.0009 19.4648H31.8543V16H28.8893C25.3278 16 24.0744 17.6804 24.0744 20.5068V22.5864H21.8542V26.0509H24.0744V35.7535C24.9393 35.9148 25.8335 36 26.749 36C27.3404 36 27.9313 35.9643 28.5178 35.893V35.893Z" fill="white"/>
  <ellipse cx="99.0146" cy="26" rx="26.0542" ry="26" fill="#4F77FF"/>
  <path d="M112.042 18.3677C111.073 18.7692 110.04 19.0354 108.964 19.1646C110.071 18.54 110.917 17.5585 111.314 16.3754C110.281 16.9569 109.142 17.3677 107.927 17.5969C106.946 16.6108 105.549 16 104.025 16C101.068 16 98.6873 18.2677 98.6873 21.0477C98.6873 21.4477 98.7232 21.8323 98.8111 22.1985C94.3705 21.9938 90.4412 19.9831 87.8016 16.92C87.3407 17.6754 87.0704 18.54 87.0704 19.4708C87.0704 21.2185 88.023 22.7677 89.443 23.6646C88.5848 23.6492 87.7429 23.4138 87.0297 23.0431C87.0297 23.0585 87.0297 23.0785 87.0297 23.0985C87.0297 25.5508 88.8812 27.5877 91.3091 28.0569C90.8743 28.1692 90.4005 28.2231 89.9087 28.2231C89.5667 28.2231 89.2215 28.2046 88.8975 28.1369C89.5895 30.1354 91.5534 31.6046 93.8885 31.6523C92.0712 32.9954 89.7638 33.8046 87.2658 33.8046C86.8278 33.8046 86.4077 33.7862 85.9875 33.7354C88.3536 35.1769 91.1577 36 94.1816 36C104.011 36 109.384 28.3077 109.384 21.64C109.384 21.4169 109.376 21.2015 109.365 20.9877C110.425 20.2769 111.315 19.3892 112.042 18.3677Z" fill="white"/>
  <ellipse cx="171.165" cy="26" rx="26.0542" ry="26" fill="#4F77FF"/>
  <path d="M161.144 18.3232C161.144 17.6498 161.381 17.0943 161.855 16.6566C162.329 16.2188 162.945 16 163.703 16C164.448 16 165.051 16.2155 165.511 16.6465C165.985 17.0909 166.222 17.67 166.222 18.3838C166.222 19.0303 165.992 19.569 165.531 20C165.057 20.4444 164.434 20.6667 163.663 20.6667H163.642C162.897 20.6667 162.295 20.4444 161.834 20C161.374 19.5556 161.144 18.9966 161.144 18.3232ZM161.408 36V22.5051H165.917V36H161.408ZM168.416 36H172.925V28.4646C172.925 27.9933 172.979 27.6296 173.088 27.3737C173.277 26.9158 173.565 26.5286 173.951 26.2121C174.337 25.8956 174.821 25.7374 175.403 25.7374C176.92 25.7374 177.678 26.7542 177.678 28.7879V36H182.188V28.2626C182.188 26.2694 181.714 24.7576 180.766 23.7273C179.818 22.697 178.565 22.1818 177.008 22.1818C175.261 22.1818 173.9 22.9293 172.925 24.4242V24.4646H172.905L172.925 24.4242V22.5051H168.416C168.443 22.936 168.456 24.2761 168.456 26.5253C168.456 28.7744 168.443 31.9326 168.416 36Z" fill="white"/>
</svg>